<?xml version="1.0" encoding="utf-8"?>
<!-- Generator: Adobe Illustrator 16.0.0, SVG Export Plug-In . SVG Version: 6.00 Build 0)  -->
<!DOCTYPE svg PUBLIC "-//W3C//DTD SVG 1.1//EN" "http://www.w3.org/Graphics/SVG/1.1/DTD/svg11.dtd">
<svg version="1.1" id="Layer_1" xmlns="http://www.w3.org/2000/svg" xmlns:xlink="http://www.w3.org/1999/xlink" x="0px" y="0px"
	 width="500px" height="500px" viewBox="0 0 500 500" enable-background="new 0 0 500 500" xml:space="preserve">
<g>
	<g id="_x31_6_1_">
		<path id="color_16_" fill="#A1B868" d="M250.267,500c138.064,0,250.007-111.921,250.007-250c0-138.06-111.943-250-250.007-250
			C112.206,0,0.277,111.94,0.277,250C0.277,388.079,112.206,500,250.267,500z"/>
	</g>
	<g id="sDsgJh_1_">
		<g>
			<path fill="#FFFFFF" d="M418.325,236.964c0,25.381,0,50.758,0,76.135c-0.271,0.782-0.66,1.545-0.787,2.346
				c-3.069,19.996-19.153,34.382-39.405,34.965c-8.849,0.257-17.717,0.106-26.565,0.136c-8.742,0.029-7.091-0.923-7.343,7.45
				c-0.243,8.228,0.33,16.669-1.341,24.624c-5.507,26.14-27.265,43.571-53.976,43.722c-35.055,0.204-70.121,0.194-105.181,0
				c-24.277-0.132-44.559-14.794-52.358-37.568c-1.529-4.473-2.156-9.262-3.195-13.904c0-65.597,0-131.197,0-196.794
				c1.418,0.122,2.836,0.345,4.25,0.345c68.812,0,137.622-0.009,206.419-0.009c1.739,0,3.468,0.204,5.392,0.33
				c0,5.313-0.039,10.219,0.01,15.115c0.058,6.129-0.923,5.663,5.847,5.73c9.693,0.098,19.397-0.136,29.081,0.156
				c17.648,0.529,33.345,13.482,37.561,30.681C417.276,232.603,417.791,234.789,418.325,236.964z M344.263,275.076
				c-0.01,0-0.019,0-0.028,0c0,15.309,0.01,30.617-0.01,45.921c-0.01,2.04-0.107,3.749,2.855,3.711
				c9.81-0.127,19.62,0.15,29.411-0.117c9.499-0.252,15.414-6.629,15.434-16.192c0.029-21.885-0.262-43.779,0.117-65.654
				c0.165-9.408-5.692-17.514-17.367-17.334c-8.966,0.141-17.94,0.165-26.905-0.005c-2.973-0.059-3.574,1.024-3.555,3.749
				C344.321,244.458,344.263,259.768,344.263,275.076z M285.411,295.101c0,3.468,0,6.936,0,10.403
				c0.01,18.897-0.028,37.796,0.049,56.688c0.029,6.766,4.303,12.19,10.247,13.425c6.896,1.428,13.463-1.525,15.726-7.577
				c0.972-2.612,1.282-5.604,1.292-8.422c0.078-43.405,0.078-86.815,0-130.226c-0.01-2.331-0.428-4.823-1.312-6.96
				c-2.496-6.003-8.926-9.019-15.395-7.586c-6.635,1.467-10.607,6.771-10.607,14.245C285.402,251.098,285.402,273.1,285.411,295.101
				z M160.179,295.042c-0.015,0-0.024,0-0.029,0c0,22.482-0.078,44.965,0.034,67.442c0.039,8.354,5.581,13.424,13.987,13.322
				c7.654-0.093,13.04-5.648,13.045-13.619c0.015-44.6,0.005-89.205-0.02-133.81c-0.005-9.665-8.261-15.843-17.571-13.225
				c-5.949,1.676-9.393,6.236-9.412,13.167C160.125,250.559,160.179,272.803,160.179,295.042z M249.84,295.527
				c0-5.147-0.005-10.296,0-15.439c0-16.994-0.029-33.983,0.034-50.982c0.019-4.968-1.272-9.238-5.585-12.113
				c-4.565-3.036-9.446-3.361-14.293-0.889c-4.769,2.433-7.178,6.522-7.183,11.923c-0.005,12.924,0.019,25.848,0.019,38.772
				c-0.005,31.594,0.005,63.188-0.039,94.781c-0.01,5.138,1.544,9.441,6.07,12.21c4.531,2.768,9.339,2.929,14.011,0.524
				c4.793-2.468,6.989-6.605,6.984-12.016C249.825,340.046,249.845,317.782,249.84,295.527z"/>
			<path fill-rule="evenodd" clip-rule="evenodd" fill="#FFFFFF" d="M128.174,130.668c13.749,0.073,27.498,0.199,41.251,0.204
				c57.297,0.024,114.587,0.01,171.895,0.02c0.815,0,1.632,0.078,2.69,0.136c0,10.52,0,20.87,0,31.832c-1.486,0-2.982,0-4.478,0
				c-69.138-0.01-138.283-0.02-207.421-0.02c-1.311,0-2.627,0.097-3.938,0.151C128.174,152.218,128.174,141.44,128.174,130.668z"/>
			<path fill-rule="evenodd" clip-rule="evenodd" fill="#FFFFFF" d="M273.97,58.845c4.604,1.505,9.46,2.506,13.772,4.624
				c12.365,6.047,19.494,16.261,21.612,29.782c0.466,2.992,1.681,4.93,3.847,6.819c5.798,5.061,9.635,11.394,11.665,19.51
				c-4.691,0-9.062,0.102-13.424-0.098c-0.748-0.034-1.622-1.243-2.098-2.093c-4.954-8.743-12.403-13.609-22.438-13.677
				c-10.16-0.068-17.784,4.677-22.864,13.561c-0.593,1.03-2.021,2.137-3.128,2.214c-3.914,0.268-7.857,0.107-13.096,0.107
				c2.156-4.546,3.606-8.665,5.957-12.186c1.972-2.958,2.098-5.595,1.165-8.728c-4.087-13.745-19.113-21.788-32.361-17.251
				c-14.234,4.861-21.296,20.107-15.711,33.915c0.481,1.195,1.005,2.37,1.797,4.235c-4.876,0-9.358,0.092-13.831-0.093
				c-0.7-0.029-1.739-1.214-1.938-2.03c-0.806-3.351-1.617-6.751-1.894-10.17c-0.194-2.351-1.248-3.04-3.259-3.332
				c-11.034-1.613-21.116,3.215-26.541,13.045c-1.098,1.981-2.283,2.729-4.473,2.632c-3.565-0.146-7.144-0.039-11.996-0.039
				c2.186-4.604,3.521-8.83,5.954-12.278c9.811-13.881,23.282-19.641,40.169-16.863c2.146,0.35,3.2-0.248,4.201-2.157
				c9.33-17.819,27.08-25.547,46.458-20.476c1.428,0.369,3.521,0.33,4.619-0.466c6.252-4.541,13.062-7.373,20.803-7.926
				c0.437-0.034,0.854-0.379,1.282-0.583C270.133,58.845,272.056,58.845,273.97,58.845z M293.784,90.07
				c-4.216-14.847-24.661-21.856-35.395-13.405c3.517,5.629,7.022,11.219,10.685,17.072
				C276.543,89.846,284.887,89.108,293.784,90.07z"/>
		</g>
	</g>
</g>
</svg>
