<?xml version="1.0" encoding="utf-8"?>
<!-- Generator: Adobe Illustrator 16.0.0, SVG Export Plug-In . SVG Version: 6.00 Build 0)  -->
<!DOCTYPE svg PUBLIC "-//W3C//DTD SVG 1.1//EN" "http://www.w3.org/Graphics/SVG/1.1/DTD/svg11.dtd">
<svg version="1.1" id="Layer_1" xmlns="http://www.w3.org/2000/svg" xmlns:xlink="http://www.w3.org/1999/xlink" x="0px" y="0px"
	 width="500px" height="500px" viewBox="0 0 500 500" enable-background="new 0 0 500 500" xml:space="preserve">
<g>
	<g id="_x38_">
		<path id="color_11_" fill="#F3994C" d="M249.975,500.092c138.069,0,250.02-111.925,250.02-249.998
			c0-138.059-111.95-250.002-250.02-250.002c-138.05,0-249.98,111.944-249.98,250.002
			C-0.006,388.167,111.925,500.092,249.975,500.092z"/>
	</g>
	<g id="_x35_dbI3P_1_">
		<g>
			<path fill-rule="evenodd" clip-rule="evenodd" fill="#FFFFFF" d="M187.247,330.639c0-31.239-0.029-62.482,0.019-93.724
				c0.015-12.426,2.016-24.439,11.52-33.388c11.268-10.602,15.367-24.031,17.173-38.687c3.589-29.141,7.896-58.213,10.5-87.439
				c0.748-8.351,2.414-17.579,0.597-25.396c-2.545-10.938,3.215-11.022,9.995-11.214c10.228-0.289,20.485,0.049,30.733,0.078
				c5.124,0.015,9.835,1.069,9.354,7.441c-2.564,33.954,5.474,66.962,8.432,100.423c2.011,22.727,5.944,44.027,23.521,60.863
				c6.566,6.294,6.862,16.066,6.872,25.056c0.067,64.826-0.029,129.654,0.35,194.478c0.054,8.252-4.089,11.748-10.49,14.361
				c-36.25,14.804-72.476,14.541-108.721-0.126c-7.431-3.002-10.102-7.932-9.976-16.192c0.491-32.172,0.194-64.353,0.194-96.533
				C187.3,330.639,187.275,330.639,187.247,330.639z M201.161,312.328c0,26.101,0.34,52.211-0.194,78.311
				c-0.175,8.567,1.656,12.074,11.049,13.235c26.556,3.278,52.879,3.365,79.416-0.083c8.407-1.088,10.807-3.832,10.729-12.078
				c-0.379-41.948-0.418-83.906,0.005-125.854c0.088-8.674-1.676-11.529-10.811-9.723c-22.579,4.458-45.449,3.264-68.25,1.86
				c-3.992-0.248-10.043,0.402-9.908-5.134c0.292-12.101-4.187-25.11,6.862-35.603c8.562-8.128,14.143-18.495,16.183-30.316
				c0.787-4.565,4.983-11.068-2.283-13.169c-7.499-2.168-7.208,5.209-8.329,9.857c-2.453,10.175-6.727,19.371-14.337,26.681
				c-7.601,7.302-10.243,16.202-10.16,26.503C201.331,261.983,201.195,287.16,201.161,312.328z"/>
		</g>
	</g>
</g>
</svg>
