<?xml version="1.0" encoding="utf-8"?>
<!-- Generator: Adobe Illustrator 16.0.0, SVG Export Plug-In . SVG Version: 6.00 Build 0)  -->
<!DOCTYPE svg PUBLIC "-//W3C//DTD SVG 1.1//EN" "http://www.w3.org/Graphics/SVG/1.1/DTD/svg11.dtd">
<svg version="1.1" id="Layer_1" xmlns="http://www.w3.org/2000/svg" xmlns:xlink="http://www.w3.org/1999/xlink" x="0px" y="0px"
	 width="500px" height="500px" viewBox="0 0 500 500" enable-background="new 0 0 500 500" xml:space="preserve">
<g>
	<g id="_x31_8_1_">
		<path id="color_30_" fill="#F28466" d="M249.995,500.772c138.072,0,250-111.931,250-250c0-138.06-111.928-250-250-250
			c-138.057,0-250,111.94-250,250C-0.005,388.842,111.938,500.772,249.995,500.772z"/>
	</g>
</g>
<g id="LxIQPx_1_">
	<g>
		<path fill-rule="evenodd" clip-rule="evenodd" fill="#FFFFFF" d="M372.978,396.666c-5.653-5.765-11.263-11.563-16.96-17.285
			c-15.892-15.936-31.812-31.831-47.728-47.747c-4.91-4.91-5.26-9.441-1.315-14.959c-7.659-7.582-15.294-15.144-23.167-22.938
			c-1.073,0.752-2.705,1.942-4.371,3.084c-53.681,36.736-126.129,11.782-145.663-50.283c-1.748-5.542-2.438-11.418-3.623-17.145
			c-0.175-0.806-0.359-1.617-0.544-2.423c0-5.581,0-11.166,0-16.742c1.098-5.624,1.875-11.336,3.342-16.863
			c9.99-37.728,42.895-65.688,81.845-69.725c49.543-5.143,94.769,28.111,103.841,76.767c5.222,27.975-0.961,53.508-18.081,76.325
			c-0.554,0.738-1.117,1.481-1.521,2.006c7.61,7.605,15.148,15.139,22.316,22.303c3.007-0.632,6.149-1.996,9.116-1.69
			c2.385,0.252,4.935,2.132,6.761,3.943c21.277,21.084,42.424,42.298,63.618,63.469c0.714,0.71,1.506,1.336,2.273,1.991
			c0,1.117,0,2.234,0,3.352c-2.346,2.234-4.74,4.41-7.019,6.712c-5.876,5.921-11.699,11.899-17.542,17.849
			C376.697,396.666,374.837,396.666,372.978,396.666z M224.968,143.199c-41.578-0.043-75.24,33.493-75.323,75.062
			c-0.083,41.696,33.501,75.494,75.143,75.626c41.603,0.141,75.581-33.853,75.546-75.582
			C300.311,176.881,266.552,143.242,224.968,143.199z"/>
	</g>
</g>
</svg>
