<?xml version="1.0" encoding="utf-8"?>
<!-- Generator: Adobe Illustrator 16.0.0, SVG Export Plug-In . SVG Version: 6.00 Build 0)  -->
<!DOCTYPE svg PUBLIC "-//W3C//DTD SVG 1.1//EN" "http://www.w3.org/Graphics/SVG/1.1/DTD/svg11.dtd">
<svg version="1.1" id="Layer_1" xmlns="http://www.w3.org/2000/svg" xmlns:xlink="http://www.w3.org/1999/xlink" x="0px" y="0px"
	 width="500px" height="500px" viewBox="0 0 500 500" enable-background="new 0 0 500 500" xml:space="preserve">
<g>
	<g id="_x31_1">
		<path id="color_14_" fill="#3F9DD1" d="M500.273,250.938c0-138.058-111.945-250.005-250.007-250.005
			c-138.06,0-249.99,111.947-249.99,250.005c0,138.076,111.931,249.995,249.99,249.995
			C388.328,500.933,500.273,389.014,500.273,250.938z"/>
	</g>
	<g id="U4rEoB_1_">
		<g>
			<path fill-rule="evenodd" clip-rule="evenodd" fill="#FFFFFF" d="M83.562,327.756c0.641-0.014,1.284-0.043,1.928-0.043
				c105.853,0,211.708,0,317.554,0c0.694,0,1.384,0,2.516,0c-0.438,3.448-0.612,6.809-1.307,10.062
				c-4.065,19-20.616,33.691-39.97,35.624c-1.331,0.127-2.676,0.185-4.017,0.185c-77.216,0.005-154.431,0.01-231.652,0
				c-22.649,0-42.697-18.271-44.771-40.729c-0.046-0.529-0.185-1.044-0.281-1.559C83.562,330.117,83.562,328.932,83.562,327.756z"/>
			<path fill-rule="evenodd" clip-rule="evenodd" fill="#FFFFFF" d="M336.217,271.176c0,3.264,0.136,6.211-0.02,9.14
				c-1.006,18.242-16.552,34.561-34.803,36.552c-1.807,0.194-3.628,0.312-5.449,0.312c-42.093,0.015-84.185-0.127-126.277,0.067
				c-20.422,0.103-37.292-16.289-39.679-34.017c-0.315-2.336-0.437-4.706-0.442-7.052c-0.022-43.438,0.005-86.872-0.044-130.311
				c-0.002-5.187,2.103-9.024,6.673-11.346c1.42-0.724,3.186-1.078,4.793-1.078c69.6-0.053,139.201-0.126,208.801,0.015
				c17.032,0.039,31.884,6.265,44.438,17.829c9.446,8.718,16.537,18.995,19.908,31.496c4.701,17.46,4.002,34.726-4.711,50.738
				c-12.739,23.434-32.395,36.702-59.572,37.635C345.454,271.307,341.059,271.176,336.217,271.176z M336.483,236.761
				c4.435,0,8.708,0.073,12.981-0.024c5.279-0.107,10.287-1.413,14.905-3.992c13.419-7.508,20.092-21.695,17.436-36.964
				c-2.365-13.565-13.773-25.192-27.377-27.251c-5.309-0.801-10.781-0.495-16.183-0.694c-0.568-0.02-1.136,0-1.763,0
				C336.483,190.86,336.483,213.687,336.483,236.761z"/>
		</g>
	</g>
</g>
</svg>
