<?xml version="1.0" encoding="utf-8"?>
<!-- Generator: Adobe Illustrator 16.0.0, SVG Export Plug-In . SVG Version: 6.00 Build 0)  -->
<!DOCTYPE svg PUBLIC "-//W3C//DTD SVG 1.1//EN" "http://www.w3.org/Graphics/SVG/1.1/DTD/svg11.dtd">
<svg version="1.1" id="Layer_1" xmlns="http://www.w3.org/2000/svg" xmlns:xlink="http://www.w3.org/1999/xlink" x="0px" y="0px"
	 width="500px" height="500px" viewBox="0 0 500 500" enable-background="new 0 0 500 500" xml:space="preserve">
<g>
	<g id="_x36_">
		<path id="color_9_" fill="#E7BF58" d="M250.269,500.091c138.066,0,250.01-111.929,250.01-249.999
			c0-138.058-111.944-250.001-250.01-250.001C112.206,0.091,0.276,112.034,0.276,250.092
			C0.276,388.162,112.206,500.091,250.269,500.091z"/>
	</g>
	<g>
		<path fill="#FFFFFF" d="M378.52,266.753l-40.354-40.289c-7.013-4.616-19.3,0-19.3,0l-42.689,31.519H159.553l-47.121-28.66
			c-13.451-6.433-19.885,0-19.885,0l-37.428,36.261c-8.188,6.435-2.923,16.96-2.923,16.96l76.61,42.695
			c4.094,18.125,21.639,93.57,21.639,93.57c2.924,5.848,11.112,8.188,11.112,8.188h107.02c12.865,0,17.547-16.377,17.547-16.377
			l18.125-84.915l74.271-43.162C383.784,273.771,378.52,266.753,378.52,266.753z M149.274,310.027l15.792-33.332h102.923
			l12.287,33.332H149.274z"/>
		<polygon fill="#FFFFFF" points="176.175,207.101 253.025,178.443 366.237,63.231 376.766,66.74 380.86,74.929 283.199,167.916 
			406.003,124.905 412.307,128.817 412.307,140.774 258.052,189.555 205.416,240.294 194.89,240.294 195.475,232.249 
			224.131,202.421 181.439,212.362 		"/>
	</g>
</g>
</svg>
