<?xml version="1.0" encoding="utf-8"?>
<!-- Generator: Adobe Illustrator 16.0.0, SVG Export Plug-In . SVG Version: 6.00 Build 0)  -->
<!DOCTYPE svg PUBLIC "-//W3C//DTD SVG 1.1//EN" "http://www.w3.org/Graphics/SVG/1.1/DTD/svg11.dtd">
<svg version="1.1" id="Layer_1" xmlns="http://www.w3.org/2000/svg" xmlns:xlink="http://www.w3.org/1999/xlink" x="0px" y="0px"
	 width="500px" height="500px" viewBox="0 0 500 500" enable-background="new 0 0 500 500" xml:space="preserve">
<g>
	<g id="_x31_7_1_">
		<path id="color_17_" fill="#8F90BC" d="M249.632,500.774c138.062,0,250.005-111.918,250.005-249.995
			c0-138.057-111.943-250.005-250.005-250.005S-0.363,112.722-0.363,250.779C-0.363,388.856,111.57,500.774,249.632,500.774z"/>
	</g>
	<g id="FIL3OT_1_">
		<g>
			<path fill-rule="evenodd" clip-rule="evenodd" fill="#FFFFFF" d="M147.844,293.479c0-26.557,0.218-53.113-0.092-79.669
				c-0.158-13.526,3.402-25.032,13.209-34.862c9.946-9.971,18.705-21.122,28.625-31.117c4.925-4.954,6.144-10.194,6.051-16.702
				c-0.078-5.58-0.563-8.917-7.61-9.718c-5.944-0.68-9.526-5.945-10.866-12.219c-1.763-8.242-1.506-16.537-0.663-24.765
				c1.085-10.607,7.455-16.712,18.105-16.785c35.268-0.248,70.536-0.354,105.8,0.083c10.412,0.126,16.974,6.211,17.386,17.236
				c0.263,7.047,0.132,14.109-0.015,21.161c-0.141,6.833-3.491,11.826-9.533,14.891c-10.315,5.23-12.379,15.876-4.317,25.036
				c10.136,11.516,20.388,22.948,31.062,33.958c8.295,8.562,12.341,18.577,12.36,30.233c0.087,56.436,0.131,112.865-0.02,169.301
				c-0.044,15.765-8.11,23.613-23.826,23.643c-50.625,0.087-101.24,0.087-151.864,0c-15.352-0.029-23.2-7.198-23.418-22.569
				c-0.411-29.033-0.117-58.087-0.117-87.135C148.014,293.479,147.926,293.479,147.844,293.479z M247.898,345.938
				c24.851,0,49.707-0.272,74.557,0.165c7.548,0.136,9.898-1.904,9.815-9.685c-0.398-38.11-0.379-76.231-0.015-114.337
				c0.073-7.737-2.408-9.825-9.907-9.786c-50.124,0.281-100.244,0.276-150.368,0.004c-7.197-0.039-9.028,2.385-8.977,9.276
				c0.287,38.524,0.318,77.052-0.022,115.581c-0.065,7.188,2.164,9.038,9.111,8.932
				C197.356,345.709,222.629,345.938,247.898,345.938z M200.401,82.805c-11.204-0.155-8.451,7.212-8.951,13.395
				c-0.573,7.125,0.457,11.749,9.65,11.341c15.254-0.675,30.56-0.185,45.836-0.185c15.691,0,31.407-0.466,47.079,0.18
				c9.014,0.369,9.301-4.658,8.47-10.831c-0.748-5.522,4.056-13.987-7.921-13.856"/>
			<path fill-rule="evenodd" clip-rule="evenodd" fill="#FFFFFF" d="M249.593,289.716c-12.277,3.341-20.611,0.51-25.064-11.53
				c-1.423-3.855-3.06-9.5-9.252-8.12c-5.983,1.336-3.807,6.683-3.69,10.345c0.213,6.79-0.802,10.733-9.276,10.549
				c-9.159-0.204-7.071-6.119-7.129-11.073c-0.15-12.837,0.224-25.678-0.16-38.499c-0.189-6.396,1.841-8.946,8.431-8.587
				c8.256,0.457,16.575-0.224,24.831,0.214c14.849,0.792,24.417,14.24,15.859,25.609c-7.979,10.603-2.074,15.974,1.777,23.473
				C247.194,284.567,248.34,287.107,249.593,289.716z M219.759,247.292c-3.132,0.374-7.591-1.112-7.936,3.502
				c-0.432,5.809,4.619,4.435,7.95,4.425c3.409-0.015,8.683,1,8.62-3.964C228.326,246.35,223.028,247.783,219.759,247.292z"/>
			<path fill-rule="evenodd" clip-rule="evenodd" fill="#FFFFFF" d="M304.302,324.912c-13.627,3.561-23.389,1.282-28.284-16.25
				c-6.619,14.847-15.27,21.505-28.795,16.289c0-0.48-0.345-1.578,0.049-2.006c16.007-17.426,23.568-34.988-4.145-53.443
				c14.077-2.127,22.76-4.536,28.107,6.309c1.831,3.726,4.818,5.076,7.027,0.359c5.178-11.039,14.172-8.723,23.006-7.702
				c0.121,1.039,0.315,1.501,0.194,1.851c-3.507,9.971-16.23,16.926-14.021,27.459C289.416,307.181,297.959,315.209,304.302,324.912
				z"/>
		</g>
	</g>
</g>
</svg>
