<?xml version="1.0" encoding="utf-8"?>
<!-- Generator: Adobe Illustrator 16.0.0, SVG Export Plug-In . SVG Version: 6.00 Build 0)  -->
<!DOCTYPE svg PUBLIC "-//W3C//DTD SVG 1.1//EN" "http://www.w3.org/Graphics/SVG/1.1/DTD/svg11.dtd">
<svg version="1.1" id="Layer_1" xmlns="http://www.w3.org/2000/svg" xmlns:xlink="http://www.w3.org/1999/xlink" x="0px" y="0px"
	 width="500px" height="500px" viewBox="0 0 500 500" enable-background="new 0 0 500 500" xml:space="preserve">
<g>
	<g id="_x31_">
		<path id="color_5_" fill="#EA5554" d="M250.263,0.249C112.206,0.249,0.276,112.183,0.276,250.241
			c0,138.071,111.929,250.008,249.987,250.008c138.07,0,250.013-111.938,250.013-250.008
			C500.276,112.183,388.333,0.249,250.263,0.249z"/>
	</g>
	<g id="FRPYjO_1_">
		<g>
			<path fill="#FFFFFF" d="M248.189,305.28c45.387,0,90.771,0.062,136.161-0.035c15.104-0.033,23.89-8.251,23.885-21.821
				c0-13.763-6.983-20.01-22.981-20.049c-37.833-0.088-75.685,0.594-113.498-0.34c-14.735-0.359-26.898,1.982-36.244,14.085
				c-10.238,13.25-23.586,14.003-38.527,9.471c-24.786-7.514-49.712-14.555-74.597-21.737c-15.983-4.616-26.738-0.744-30.827,10.95
				c-5.532,15.814,4.422,29.389,21.947,29.438C158.401,305.361,203.295,305.28,248.189,305.28z M249.122,225.092
				c0,0.034,0,0.068,0,0.103c-47.364,0-94.729,0.119-142.094-0.117c-8.013-0.039-15.735,0.002-16.116,10.117
				c-0.391,10.34,7.452,10.901,15.437,10.896c95.723-0.075,191.448-0.068,287.171-0.02c7.373,0.005,14.478-0.311,14.589-10.126
				c0.116-10.692-7.488-10.913-15.414-10.896C344.838,225.136,296.98,225.092,249.122,225.092z"/>
			<path fill-rule="evenodd" clip-rule="evenodd" fill="#FFFFFF" d="M75.837,201.535c14.101-56.028,62.509-63.811,107.34-73.486
				c59.228-12.778,118.457-8.731,175.982,11.407c17.615,6.166,34.656,13.956,48.648,26.926c2.175,2.01,4.431,4.002,6.227,6.324
				c7.295,9.4,11.83,21.479,7.857,31.561c-3.21,8.152-15.419,3.534-23.777,3.531c-53.247-0.002-106.495,0.048-159.747-0.007
				c-54.177-0.056-108.353-0.211-162.53-0.325C75.837,205.488,75.837,203.511,75.837,201.535z M357.566,172.033
				c-0.15-7.176-4.628-11.125-10.932-11.047c-6.383,0.078-10.831,4.298-10.637,11.414c0.185,6.918,4.206,11.199,10.933,10.986
				C353.453,183.182,357.533,179.135,357.566,172.033z M307.219,149.497c0.213-7.591-3.973-10.41-10.966-10.301
				c-6.493,0.102-9.859,3.382-9.995,9.854c-0.146,6.86,2.506,11.103,10.15,11.057C303.635,160.061,307.092,156.552,307.219,149.497z
				 M312.23,192.858c4.817,0.034,9.115-3.829,9.363-10.315c0.253-6.488-3.443-10.629-10.791-10.746
				c-6.726-0.106-10.111,3.643-10.603,9.451C299.657,187.728,302.683,192.372,312.23,192.858z"/>
			<path fill-rule="evenodd" clip-rule="evenodd" fill="#FFFFFF" d="M75.837,320.133c111.133,0.125,222.27,0.611,333.398-0.068
				c14.463-0.088,15.677,5.391,12.977,15.938c-7.356,28.715-12.972,28.928-34.481,28.816c-91.871-0.476-183.75-0.199-275.626-0.199
				c-25.669,0-26.34-0.476-33.246-25.313c-0.544-1.963-0.695-3.804-3.021-4.347C75.837,330.02,75.837,325.076,75.837,320.133z"/>
			<path fill-rule="evenodd" clip-rule="evenodd" fill="#FFFFFF" d="M248.189,305.28c-44.894,0-89.788,0.081-134.682-0.039
				c-17.525-0.049-27.479-13.623-21.947-29.438c4.089-11.694,14.844-15.566,30.827-10.95c24.885,7.183,49.811,14.224,74.597,21.737
				c14.941,4.532,28.29,3.779,38.527-9.471c9.346-12.103,21.509-14.444,36.244-14.085c37.813,0.934,75.665,0.252,113.498,0.34
				c15.998,0.039,22.981,6.286,22.981,20.049c0.005,13.57-8.781,21.788-23.885,21.821
				C338.961,305.343,293.576,305.28,248.189,305.28z"/>
			<path fill-rule="evenodd" clip-rule="evenodd" fill="#FFFFFF" d="M249.122,225.092c47.858,0,95.716,0.044,143.572-0.044
				c7.926-0.017,15.53,0.205,15.414,10.896c-0.111,9.816-7.216,10.132-14.589,10.126c-95.723-0.048-191.448-0.056-287.171,0.02
				c-7.984,0.005-15.827-0.556-15.437-10.896c0.381-10.115,8.104-10.155,16.116-10.117c47.364,0.235,94.73,0.117,142.094,0.117
				C249.122,225.16,249.122,225.126,249.122,225.092z"/>
		</g>
	</g>
</g>
</svg>
