<?xml version="1.0" encoding="utf-8"?>
<!-- Generator: Adobe Illustrator 16.0.0, SVG Export Plug-In . SVG Version: 6.00 Build 0)  -->
<!DOCTYPE svg PUBLIC "-//W3C//DTD SVG 1.1//EN" "http://www.w3.org/Graphics/SVG/1.1/DTD/svg11.dtd">
<svg version="1.1" id="Layer_1" xmlns="http://www.w3.org/2000/svg" xmlns:xlink="http://www.w3.org/1999/xlink" x="0px" y="0px"
	 width="500px" height="500px" viewBox="0 0 500 500" enable-background="new 0 0 500 500" xml:space="preserve">
<g>
	<g id="_x32_">
		<path id="color_4_" fill="#F28466" d="M249.626,0.249c-138.064,0-249.99,111.943-249.99,250.001
			c0,138.07,111.926,249.999,249.99,249.999s250.01-111.929,250.01-249.999C499.636,112.192,387.69,0.249,249.626,0.249z"/>
	</g>
	<g id="f5aCWf_1_">
		<g>
			<path fill-rule="evenodd" clip-rule="evenodd" fill="#FFFFFF" d="M256.022,80.723c51.567,0.765,100.318,12.523,146.456,35.301
				c9.562,4.721,12.865,12.999,9.369,22.965c-1.841,5.24-3.881,10.411-5.756,15.641c-1.763,4.944-4.458,8.783-9.98,10.175
				c-1.315,0.333-2.646,1.986-3.297,3.354c-40.553,85.328-81.028,170.695-121.523,256.053c-1.068,2.254-2.093,4.526-3.341,6.683
				c-6.444,11.142-18.851,11.258-25.009-0.01c-4.22-7.727-7.766-15.823-11.549-23.788
				c-36.828-77.553-73.641-155.104-110.439-232.667c-2.244-4.723-3.91-9.232-9.582-11.862c-6.654-3.086-14.789-29.432-11.549-36.161
				c1.86-3.871,5.143-8.004,8.863-9.883c33.637-16.984,69.197-28.077,106.652-32.56C228.832,82.348,242.455,81.772,256.022,80.723z
				 M376.034,161.634c-7.416-3.521-14.288-7.232-21.485-10.124c-27.008-10.852-55.322-15.24-84.243-16.241
				c-35.441-1.227-70.545,0.738-104.609,11.775c-10.758,3.487-21.161,7.706-30.723,14.835
				c40.028,84.369,79.94,168.486,120.427,253.814C295.924,330.351,335.749,246.479,376.034,161.634z"/>
			<path fill-rule="evenodd" clip-rule="evenodd" fill="#FFFFFF" d="M214.141,154.274c23.38,0.019,42.153,18.937,41.872,42.186
				c-0.282,22.363-19.138,41.042-41.386,40.986c-23.113-0.056-41.763-18.604-41.879-41.649
				C172.641,173.254,191.577,154.257,214.141,154.274z"/>
			<path fill-rule="evenodd" clip-rule="evenodd" fill="#FFFFFF" d="M263.618,260.753c17.431,0.039,31.194,13.866,31.281,31.429
				c0.088,17.46-14.478,32.001-31.767,31.709c-17.355-0.291-31.406-14.443-31.396-31.617
				C231.746,274.702,245.898,260.715,263.618,260.753z"/>
			<path fill-rule="evenodd" clip-rule="evenodd" fill="#FFFFFF" d="M311.791,180.16c-0.121,11.819-9.524,21.025-21.345,20.921
				c-11.676-0.104-21.194-9.689-21.146-21.295c0.049-11.896,9.772-21.343,21.802-21.178
				C302.82,158.773,311.922,168.251,311.791,180.16z"/>
		</g>
	</g>
</g>
</svg>
