<?xml version="1.0" encoding="utf-8"?>
<!-- Generator: Adobe Illustrator 16.0.0, SVG Export Plug-In . SVG Version: 6.00 Build 0)  -->
<!DOCTYPE svg PUBLIC "-//W3C//DTD SVG 1.1//EN" "http://www.w3.org/Graphics/SVG/1.1/DTD/svg11.dtd">
<svg version="1.1" id="Layer_1" xmlns="http://www.w3.org/2000/svg" xmlns:xlink="http://www.w3.org/1999/xlink" x="0px" y="0px"
	 width="500px" height="500px" viewBox="0 0 500 500" enable-background="new 0 0 500 500" xml:space="preserve">
<g>
	<g id="_x31_2">
		<path id="color_39_" fill="#EB5380" d="M249.638,500.934c138.049,0,249.997-111.915,249.997-249.993
			c0-138.059-111.948-250.007-249.997-250.007C111.565,0.933-0.365,112.882-0.365,250.94
			C-0.365,389.019,111.565,500.934,249.638,500.934z"/>
	</g>
	<g id="Cfzkdy_1_">
		<g>
			<path fill-rule="evenodd" clip-rule="evenodd" fill="#FFFFFF" d="M132.745,212.101c23.499-7.566,47.782-6.129,71.928-6.178
				c3.5-0.01,7.008,0.068,10.5,0.267c20.352,1.156,40.55,1.681,60.555-4.08c10.558-3.036,21.611-2.297,31.495,3.468
				c3.316,1.933,5.988,1.078,9.009,0.092c9.101-2.962,18.13-6.212,27.353-8.747c11.35-3.118,20.504-6.231,24.078-20.607
				c3.716-14.983,20.199-21.729,35.531-18.786c14.739,2.821,25.662,15.784,25.827,31.248c0.054,4.313,1.146,7.679,3.633,11.214
				c9.577,13.643,7.372,31.292-4.91,42.4c-12.389,11.194-31.364,11.598-43.457-0.02c-4.375-4.206-7.731-5.085-13.19-2.978
				c-8.324,3.22-16.915,5.756-25.473,8.32c-10.912,3.279-21.276,6.09-27.289,18.043c-4.303,8.581-14.21,12.942-23.224,15.9
				c-15.59,5.119-27.761,15.227-40.358,24.887c-19.954,15.27-39.426,31.351-62.184,42.38c-22.799,11.059-46.815,14.469-71.61,7.858
				c-51.145-13.623-69.884-70.981-36.849-112.318C95.83,229.789,112.543,218.701,132.745,212.101z M352.884,213.567
				c-7.877,2.54-15.74,5.1-23.627,7.62c-3.623,1.161-7.202,1.462-4.974,7.436c2.016,5.406,4.6,4.614,8.597,3.288
				c14.793-4.92,29.717-9.476,44.477-14.498c7.537-2.574,12.933-1.438,16.221,6.455c2.516,6.042,7.746,8.31,13.919,7.897
				c5.644-0.374,9.334-4.002,11.165-9.121c2.181-6.066,0.428-11.384-4.711-15.206c-4.613-3.434-6.706-7.334-4.667-13.123
				c2.113-5.998,0.898-11.394-4.308-15.333c-4.711-3.57-10.097-4.41-15.172-1.2c-5.575,3.516-7.911,8.694-6.318,15.537
				c1.544,6.635-1.204,10.962-7.878,12.953C367.983,208.541,360.455,211.12,352.884,213.567z M236.292,231.358
				c4.101-0.855,6.622-1.846,6.59-4.993c-0.029-3.201-2.266-4.24-5.245-4.017c-25.74,1.942-51.485-1.686-77.244,0.18
				c-27.879,2.021-51.307,12.108-67.13,36.202c-8.297,12.633-10.208,26.605-7.107,41.273c0.661,3.113,1.739,6.756,6.013,5.939
				c4.393-0.84,3.771-4.255,2.982-7.596c-0.656-2.773-1.178-5.615-1.377-8.461c-1.804-25.833,19.96-48.776,49.685-55.959
				c20.956-5.066,42.459-3.07,63.782-2.604C217.412,231.552,227.589,232.47,236.292,231.358z"/>
		</g>
	</g>
</g>
</svg>
