<?xml version="1.0" encoding="utf-8"?>
<!-- Generator: Adobe Illustrator 16.0.0, SVG Export Plug-In . SVG Version: 6.00 Build 0)  -->
<!DOCTYPE svg PUBLIC "-//W3C//DTD SVG 1.1//EN" "http://www.w3.org/Graphics/SVG/1.1/DTD/svg11.dtd">
<svg version="1.1" id="Layer_1" xmlns="http://www.w3.org/2000/svg" xmlns:xlink="http://www.w3.org/1999/xlink" x="0px" y="0px"
	 width="500px" height="500px" viewBox="0 0 500 500" enable-background="new 0 0 500 500" xml:space="preserve">
<g>
	<g id="_x33_">
		<path id="color_6_" fill="#3F9DD1" d="M249.989,500.249c138.06,0,250.005-111.938,250.005-250.008
			c0-138.058-111.945-249.992-250.005-249.992C111.925,0.249-0.006,112.183-0.006,250.241
			C-0.006,388.311,111.925,500.249,249.989,500.249z"/>
	</g>
	<g id="ROklCG_1_">
		<g>
			<path fill-rule="evenodd" clip-rule="evenodd" fill="#FFFFFF" d="M315.84,76.765c0.156,0.146,0.297,0.393,0.477,0.422
				c13.473,2.314,22.681,13.958,22.661,30.277c-0.049,41.035-0.015,82.067-0.015,123.102c0,54.82-0.005,109.644,0.005,164.467
				c0,6.469-1.607,12.282-7.013,16.367c-5.581,4.22-11.777,4.754-18.145,2.137c-6.241-2.564-9.631-7.494-10.559-14.104
				c-0.271-1.952-0.311-3.958-0.311-5.939c-0.02-35.848-0.015-71.7-0.015-107.548c0-1.418,0-2.836,0-4.561
				c-6.401,0-12.54,0-19.014,0c-0.068-1.467-0.175-2.638-0.175-3.808c-0.005-56.475-0.01-112.954-0.005-169.43
				c0.005-11.069,3.108-20.799,12.928-27.042c3.167-2.013,7.033-2.924,10.573-4.339C310.104,76.765,312.97,76.765,315.84,76.765z"/>
			<path fill-rule="evenodd" clip-rule="evenodd" fill="#FFFFFF" d="M239.052,76.765c3.196,2.032,4.094,4.939,4.084,8.674
				c-0.107,33.415-0.059,66.832-0.063,100.246c-0.005,12.938-8.479,22.536-21.417,24.279c-0.422,0.056-0.835,0.199-1.685,0.408
				c0,1.367,0,2.759,0,4.148c0,60.104-0.02,120.207,0.024,180.31c0.005,6.59-1.384,12.545-6.721,16.853
				c-5.542,4.468-11.821,5.304-18.334,2.525c-6.712-2.865-9.946-8.422-10.787-15.474c-0.204-1.743-0.146-3.526-0.146-5.284
				c-0.005-59.554-0.005-119.106-0.005-178.66c0-1.416,0-2.832,0-4.485c-1.821-0.267-3.448-0.405-5.026-0.753
				c-10.922-2.394-18.538-11.535-18.586-23.101c-0.141-34.187-0.039-68.375-0.083-102.562c-0.005-3.198,1.593-5.323,3.948-7.122
				c1.763,0,3.531,0,5.294,0c3.016,2.365,3.837,5.498,3.822,9.247c-0.097,23.133-0.054,46.268-0.039,69.403
				c0,1.263,0.126,2.525,0.194,3.762c3.652,0,6.901,0,10.476,0c0-1.516,0-2.812,0-4.109c0-23.354,0.063-46.709-0.068-70.063
				c-0.024-3.676,0.991-6.384,4.153-8.239c1.321,0,2.646,0,3.968,0c3.647,1.666,4.473,4.726,4.463,8.419
				c-0.053,23.378-0.029,46.756-0.02,70.134c0,1.275,0.112,2.55,0.17,3.864c3.715,0,7.071,0,10.723,0c0-1.518,0-2.822,0-4.124
				c0-23.269,0.039-46.537-0.039-69.804c-0.015-3.55,0.84-6.466,3.9-8.489c1.544,0,3.089,0,4.633,0
				c2.978,2.125,3.696,5.102,3.687,8.613c-0.078,23.259-0.044,46.518-0.044,69.777c0,1.287,0,2.577,0,3.99c3.891,0,7.338,0,10.966,0
				c0-1.571,0-2.887,0-4.204c0-23.149,0.068-46.297-0.068-69.444c-0.02-3.728,0.889-6.629,3.992-8.732
				C235.963,76.765,237.508,76.765,239.052,76.765z"/>
		</g>
	</g>
</g>
</svg>
