<?xml version="1.0" encoding="utf-8"?>
<!-- Generator: Adobe Illustrator 16.0.0, SVG Export Plug-In . SVG Version: 6.00 Build 0)  -->
<!DOCTYPE svg PUBLIC "-//W3C//DTD SVG 1.1//EN" "http://www.w3.org/Graphics/SVG/1.1/DTD/svg11.dtd">
<svg version="1.1" id="Layer_1" xmlns="http://www.w3.org/2000/svg" xmlns:xlink="http://www.w3.org/1999/xlink" x="0px" y="0px"
	 width="500px" height="500px" viewBox="0 0 500 500" enable-background="new 0 0 500 500" xml:space="preserve">
<g>
	<g id="_x37_">
		<path id="color_10_" fill="#2DBA9D" d="M249.62,500.092c138.071,0,250.015-111.925,250.015-249.998
			c0-138.059-111.943-250.002-250.015-250.002C111.566,0.091-0.365,112.035-0.365,250.094
			C-0.365,388.167,111.566,500.092,249.62,500.092z"/>
	</g>
	<g id="TbYkPI_2_">
		<g>
			<path fill-rule="evenodd" clip-rule="evenodd" fill="#FFFFFF" d="M125.277,318.569c14.229,29.01,38.765,39.84,68.564,39.908
				c30.522,0.063,55.542-10.908,67.942-39.665c0,20.554,1.611,42.545-0.518,64.162c-1.646,16.785-14.839,27.329-29.783,33.871
				c-30.784,13.469-60.596,12.099-88.062-8.645c-12.036-9.087-18.308-21.481-18.179-36.896
				C125.389,353.728,125.277,336.146,125.277,318.569z"/>
			<path fill-rule="evenodd" clip-rule="evenodd" fill="#FFFFFF" d="M378.644,106.797
				c-93.906,50.491-185.305,99.634-277.212,149.057c-1.665-1.816-3.359-3.657-5.43-5.908c11.47-7.234,22.29-14.235,33.279-20.957
				c21.24-12.989,42.52-25.913,63.884-38.696c43.872-26.258,87.798-52.424,131.733-78.583c9.736-5.796,19.805-11.073,29.297-17.237
				c4.668-3.033,7.51-2.426,11.152,1.319C368.946,99.487,373.297,102.445,378.644,106.797z"/>
			<path fill-rule="evenodd" clip-rule="evenodd" fill="#FFFFFF" d="M108.265,273.775c-1.316-2.195-2.612-4.352-4.192-6.994
				c15.09-6.109,29.717-12.073,44.368-17.955c20.984-8.429,41.929-16.96,63-25.161c41.953-16.335,83.975-32.484,125.981-48.691
				c15.469-5.967,31.03-11.695,46.392-17.907c5.483-2.217,9.131-1.918,12.114,3.72c2.266,4.281,5.464,8.065,8.857,12.941
				C305.455,207.245,207.074,240.438,108.265,273.775z"/>
			<path fill-rule="evenodd" clip-rule="evenodd" fill="#FFFFFF" d="M222.713,291.366c13.997,7.514,13.184,23.575-0.459,31.817
				c-18.123,10.951-37.256,11.107-55.632,0.743c-15.994-9.029-15.361-26.528,1.304-34.823
				C167.926,289.104,192.931,275.378,222.713,291.366z"/>
			<path fill-rule="evenodd" clip-rule="evenodd" fill="#FFFFFF" d="M272.179,271.531c14.233,29.01,38.765,39.836,68.569,39.903
				c30.522,0.068,55.537-10.898,67.939-39.66c0,20.554,1.606,42.545-0.518,64.168c-1.646,16.78-14.839,27.324-29.79,33.866
				c-30.781,13.468-60.591,12.098-88.057-8.641c-12.036-9.092-18.311-21.486-18.179-36.901
				C272.291,306.694,272.179,289.113,272.179,271.531z"/>
			<path fill-rule="evenodd" clip-rule="evenodd" fill="#FFFFFF" d="M364.64,244.329c13.989,7.513,13.188,23.57-0.459,31.817
				c-18.12,10.952-37.256,11.112-55.635,0.738c-15.996-9.024-15.361-26.525,1.309-34.816
				C309.854,242.068,334.854,228.343,364.64,244.329z"/>
		</g>
	</g>
</g>
</svg>
