<?xml version="1.0" encoding="utf-8"?>
<!-- Generator: Adobe Illustrator 16.0.0, SVG Export Plug-In . SVG Version: 6.00 Build 0)  -->
<!DOCTYPE svg PUBLIC "-//W3C//DTD SVG 1.1//EN" "http://www.w3.org/Graphics/SVG/1.1/DTD/svg11.dtd">
<svg version="1.1" id="Layer_1" xmlns="http://www.w3.org/2000/svg" xmlns:xlink="http://www.w3.org/1999/xlink" x="0px" y="0px"
	 width="500px" height="500px" viewBox="0 0 500 500" enable-background="new 0 0 500 500" xml:space="preserve">
<g>
	<g id="_x31_3_1_">
		<path id="color_33_" fill="#A1B868" d="M250.002,0.932c-138.08,0-250.007,111.94-250.007,250.01
			c0,138.069,111.927,249.99,250.007,249.99c138.056,0,249.993-111.921,249.993-249.99C499.995,112.872,388.058,0.932,250.002,0.932
			z"/>
	</g>
	<g id="sdQ7D8_1_">
		<g>
			<path fill-rule="evenodd" clip-rule="evenodd" fill="#FFFFFF" d="M369.321,274.006c-3.798-4.822-7.368-9.358-11.225-14.254
				c1.073-1.38,2.138-2.672,3.118-4.017c12.963-17.806,15.439-37.024,5.892-56.835c-9.446-19.597-25.794-30.093-47.601-30.851
				c-14.234-0.49-28.217-1.413-41.359-7.508c-10.782-4.998-19.897-11.924-25.969-22.38c-0.772-1.326-1.369-2.744-2.7-5.439
				c18.863,10.301,37.474,12.904,57.604,7.436c-5.206-11.389-13.03-19.296-23.991-24.065c-10.845-4.716-21.919-4.502-33.875-0.529
				c3.103-7.271,7.222-12.608,12.544-17.033c13.75-11.457,30.146-15.323,47.45-15.197c25.473,0.185,49.096,7.14,69.562,22.662
				c30.068,22.808,42.293,53.668,39.121,90.823C415.022,230.465,396.989,254.865,369.321,274.006z"/>
			<path fill-rule="evenodd" clip-rule="evenodd" fill="#FFFFFF" d="M360.608,278.256c-18.067,16.31-30.505,36.218-41.346,57.229
				c-3.011,5.843-5.59,11.933-8.018,18.048c-2.734,6.867-7.437,11.559-14.265,14.113c-31.447,11.734-62.879,11.671-94.316-0.106
				c-8.242-3.079-12.273-9.606-15.386-17.329c-8.81-21.846-20.792-41.847-36.037-59.826c-3.54-4.177-7.547-7.961-11.656-12.254
				c2.841-3.721,5.653-7.63,8.693-11.341c12.418-15.163,24.269-30.851,37.547-45.231c13.327-14.439,29.946-24.309,49.606-28.077
				c23.812-4.561,45.488,1.37,64.229,15.935c11.181,8.679,21.238,19.083,30.578,29.772
				C340.953,251.456,350.321,264.895,360.608,278.256z"/>
			<path fill-rule="evenodd" clip-rule="evenodd" fill="#FFFFFF" d="M143.257,258.8c-3.875,4.959-7.625,9.753-11.354,14.517
				c-44.342-29.335-51.753-84.853-13.72-121.644c16.877-16.329,36.872-26.596,61.136-26.052c12.341,0.271,22.521,5.07,29.611,15.527
				c0.913,1.345,1.583,2.846,2.569,4.648c-22.35-3.215-35.585,1.69-41.617,15.061c10.592,7.105,23.657,6.771,42-1.481
				c-1.312,2.525-2.108,4.468-3.249,6.178c-8.451,12.71-20.5,19.966-35.595,19.403c-18.936-0.704-37.294,16.294-40.349,36.028
				C130.586,234.53,133.034,243.423,143.257,258.8z"/>
			<path fill-rule="evenodd" clip-rule="evenodd" fill="#FFFFFF" d="M325.858,341.982c4.667-8.237,9.116-16.101,13.517-23.876
				c27.392,10.015,34.244,10.136,59.863,1.233C389.258,340.545,357.52,351.482,325.858,341.982z"/>
			<path fill-rule="evenodd" clip-rule="evenodd" fill="#FFFFFF" d="M100.45,318.762c20.568,10.341,40.194,8.262,60.165-0.859
				c4.517,7.994,8.97,15.867,13.424,23.735C152.703,353.887,110.732,341.084,100.45,318.762z"/>
			<path fill-rule="evenodd" clip-rule="evenodd" fill="#FFFFFF" d="M84.895,269.635c7.28,7.242,15.342,12.42,24.915,14.236
				c5.891,1.116,12.069,0.747,18.115,1.073c1.496,0.082,3.415-0.307,4.405,0.461c8.582,6.664,15.561,14.828,22.175,23.691
				C118.551,315.857,90.897,298.228,84.895,269.635z"/>
			<path fill-rule="evenodd" clip-rule="evenodd" fill="#FFFFFF" d="M415.168,269.99c-4.517,28.023-41.059,48.597-70.485,38.68
				c7.863-8.01,15.23-15.62,22.764-23.056c0.792-0.777,2.618-0.933,3.861-0.743c16.23,2.491,29.951-2.71,41.928-13.429
				C413.774,270.956,414.4,270.562,415.168,269.99z"/>
			<path fill-rule="evenodd" clip-rule="evenodd" fill="#FFFFFF" d="M363.046,400.876c-15.993-12.496-31.986-24.298-50.868-30.534
				c3.725-6.893,7.416-13.701,11.18-20.661C339.919,351.016,361.443,378.205,363.046,400.876z"/>
			<path fill-rule="evenodd" clip-rule="evenodd" fill="#FFFFFF" d="M176.627,349.447c3.691,6.839,7.363,13.652,11.238,20.841
				c-18.635,6.274-34.774,17.946-50.68,30.55C139.469,379.123,156.652,353.522,176.627,349.447z"/>
		</g>
	</g>
</g>
</svg>
